<mxfile host="app.diagrams.net" modified="2021-05-17T18:41:51.550Z" agent="5.0 (Macintosh; Intel Mac OS X 10_15_7) AppleWebKit/537.36 (KHTML, like Gecko) Chrome/90.0.4430.212 Safari/537.36" etag="bXYTUEZ50x91rXpnoO7T" version="14.6.13" type="github">
  <diagram name="Page-1" id="edf60f1a-56cd-e834-aa8a-f176f3a09ee4">
    <mxGraphModel dx="946" dy="480" grid="0" gridSize="10" guides="1" tooltips="1" connect="1" arrows="1" fold="1" page="0" pageScale="1" pageWidth="1400" pageHeight="850" math="0" shadow="0">
      <root>
        <mxCell id="0" />
        <mxCell id="1" parent="0" />
        <mxCell id="NU9w9m9cG1zi0i4qsAGk-25" value="" style="rounded=1;whiteSpace=wrap;html=1;shadow=0;dashed=1;dashPattern=1 1;fontSize=31;fontColor=#46495D;strokeColor=#788AA3;fillColor=none;align=center;strokeWidth=3;" parent="1" vertex="1">
          <mxGeometry x="527" y="140" width="610" height="120" as="geometry" />
        </mxCell>
        <mxCell id="NU9w9m9cG1zi0i4qsAGk-27" style="edgeStyle=orthogonalEdgeStyle;rounded=0;orthogonalLoop=1;jettySize=auto;html=1;exitX=1;exitY=0.5;exitDx=0;exitDy=0;entryX=0;entryY=0.5;entryDx=0;entryDy=0;fontSize=31;fontColor=#46495D;strokeColor=#788AA3;" parent="1" source="NU9w9m9cG1zi0i4qsAGk-4" target="NU9w9m9cG1zi0i4qsAGk-25" edge="1">
          <mxGeometry relative="1" as="geometry" />
        </mxCell>
        <mxCell id="NU9w9m9cG1zi0i4qsAGk-4" value="í ¼í¼±" style="rounded=0;whiteSpace=wrap;html=1;shadow=0;fillColor=none;fontSize=31;strokeColor=none;fontColor=#46495D;" parent="1" vertex="1">
          <mxGeometry x="447" y="170" width="40" height="60" as="geometry" />
        </mxCell>
        <mxCell id="NU9w9m9cG1zi0i4qsAGk-5" value="â˜•" style="text;whiteSpace=wrap;html=1;fontSize=31;align=center;fontColor=#46495D;" parent="1" vertex="1">
          <mxGeometry x="1187" y="175" width="40" height="50" as="geometry" />
        </mxCell>
        <mxCell id="NU9w9m9cG1zi0i4qsAGk-29" style="edgeStyle=orthogonalEdgeStyle;rounded=0;orthogonalLoop=1;jettySize=auto;html=1;exitX=1;exitY=0.5;exitDx=0;exitDy=0;entryX=0;entryY=0.5;entryDx=0;entryDy=0;fontSize=31;fontColor=#46495D;strokeColor=#788AA3;" parent="1" source="NU9w9m9cG1zi0i4qsAGk-9" target="NU9w9m9cG1zi0i4qsAGk-11" edge="1">
          <mxGeometry relative="1" as="geometry" />
        </mxCell>
        <mxCell id="NU9w9m9cG1zi0i4qsAGk-9" value="&quot;&lt;b&gt;budding&lt;/b&gt;&quot;&lt;br&gt;opening GH issue" style="rounded=1;whiteSpace=wrap;html=1;sketch=0;strokeColor=#6c8ebf;fillColor=#dae8fc;" parent="1" vertex="1">
          <mxGeometry x="547" y="177" width="110" height="50" as="geometry" />
        </mxCell>
        <mxCell id="NU9w9m9cG1zi0i4qsAGk-24" style="edgeStyle=orthogonalEdgeStyle;rounded=0;orthogonalLoop=1;jettySize=auto;html=1;exitX=1;exitY=0.5;exitDx=0;exitDy=0;fontSize=31;fontColor=#46495D;startArrow=none;strokeColor=#788AA3;" parent="1" source="NU9w9m9cG1zi0i4qsAGk-124" edge="1">
          <mxGeometry relative="1" as="geometry">
            <mxPoint x="1007" y="202" as="targetPoint" />
          </mxGeometry>
        </mxCell>
        <mxCell id="NU9w9m9cG1zi0i4qsAGk-11" value="&quot;&lt;b&gt;roasting&lt;/b&gt;&quot;&lt;br&gt;collaborator commenting" style="rounded=1;whiteSpace=wrap;html=1;sketch=0;strokeColor=#6c8ebf;fillColor=#dae8fc;" parent="1" vertex="1">
          <mxGeometry x="757" y="177" width="140" height="50" as="geometry" />
        </mxCell>
        <mxCell id="NU9w9m9cG1zi0i4qsAGk-12" value="&quot;&lt;b&gt;brewing&lt;/b&gt;&quot;&lt;br&gt;refining the idea" style="rounded=1;whiteSpace=wrap;html=1;sketch=0;strokeColor=#6c8ebf;fillColor=#dae8fc;" parent="1" vertex="1">
          <mxGeometry x="1009.5" y="180" width="110" height="50" as="geometry" />
        </mxCell>
        <mxCell id="NU9w9m9cG1zi0i4qsAGk-28" style="edgeStyle=orthogonalEdgeStyle;rounded=0;orthogonalLoop=1;jettySize=auto;html=1;exitX=1;exitY=0.5;exitDx=0;exitDy=0;fontSize=31;fontColor=#46495D;strokeColor=#788AA3;" parent="1" source="NU9w9m9cG1zi0i4qsAGk-25" target="NU9w9m9cG1zi0i4qsAGk-5" edge="1">
          <mxGeometry relative="1" as="geometry" />
        </mxCell>
        <mxCell id="NU9w9m9cG1zi0i4qsAGk-7" value="í ¾íº´" style="text;whiteSpace=wrap;html=1;fontSize=31;align=center;fontColor=#46495D;" parent="1" vertex="1">
          <mxGeometry x="677" y="171" width="60" height="50" as="geometry" />
        </mxCell>
        <mxCell id="NU9w9m9cG1zi0i4qsAGk-124" value="" style="shape=image;verticalLabelPosition=bottom;verticalAlign=top;aspect=fixed;imageAspect=0;image=data:image/jpeg,/9j/4AAQSkZJRgABAQAASABIAAD/4QCkRXhpZgAATU0AKgAAAAgAAwESAAMAAAABAAEAAIKYAAIAAABAAAAAModpAAQAAAABAAAAcgAAAADCqSBldmFud2VpZ2h0bWFuIC0gaHR0cDovL3d3dy5yZWRidWJibGUuY29tL3Blb3BsZS9ldmFud2VpZ2h0bWEAAAOgAQADAAAAAQABAACgAgAEAAAAAQAAAd+gAwAEAAAAAQAAAawAAAAA/+EJ82h0dHA6Ly9ucy5hZG9iZS5jb20veGFwLzEuMC8APD94cGFja2V0IGJlZ2luPSLvu78iIGlkPSJXNU0wTXBDZWhpSHpyZVN6TlRjemtjOWQiPz4gPHg6eG1wbWV0YSB4bWxuczp4PSJhZG9iZTpuczptZXRhLyIgeDp4bXB0az0iWE1QIENvcmUgNi4wLjAiPiA8cmRmOlJERiB4bWxuczpyZGY9Imh0dHA6Ly93d3cudzMub3JnLzE5OTkvMDIvMjItcmRmLXN5bnRheC1ucyMiPiA8cmRmOkRlc2NyaXB0aW9uIHJkZjphYm91dD0iIiB4bWxuczpkYz0iaHR0cDovL3B1cmwub3JnL2RjL2VsZW1lbnRzLzEuMS8iPiA8ZGM6cmlnaHRzPiA8cmRmOkFsdD4gPHJkZjpsaSB4bWw6bGFuZz0ieC1kZWZhdWx0Ij7CqSBldmFud2VpZ2h0bWFuIC0gaHR0cDovL3d3dy5yZWRidWJibGUuY29tL3Blb3BsZS9ldmFud2VpZ2h0bWE8L3JkZjpsaT4gPC9yZGY6QWx0PiA8L2RjOnJpZ2h0cz4gPC9yZGY6RGVzY3JpcHRpb24+IDwvcmRmOlJERj4gPC94OnhtcG1ldGE+ICAgICAgICAgICAgICAgICAgICAgICAgICAgICAgICAgICAgICAgICAgICAgICAgICAgICAgICAgICAgICAgICAgICAgICAgICAgICAgICAgICAgICAgICAgICAgICAgICAgICAgICAgICAgICAgICAgICAgICAgICAgICAgICAgICAgICAgICAgICAgICAgICAgICAgICAgICAgICAgICAgICAgICAgICAgICAgICAgICAgICAgICAgICAgICAgICAgICAgICAgICAgICAgICAgICAgICAgICAgICAgICAgICAgICAgICAgICAgICAgICAgICAgICAgICAgICAgICAgICAgICAgICAgICAgICAgICAgICAgICAgICAgICAgICAgICAgICAgICAgICAgICAgICAgICAgICAgICAgICAgICAgICAgICAgICAgICAgICAgICAgICAgICAgICAgICAgICAgICAgICAgICAgICAgICAgICAgICAgICAgICAgICAgICAgICAgICAgICAgICAgICAgICAgICAgICAgICAgICAgICAgICAgICAgICAgICAgICAgICAgICAgICAgICAgICAgICAgICAgICAgICAgICAgICAgICAgICAgICAgICAgICAgICAgICAgICAgICAgICAgICAgICAgICAgICAgICAgICAgICAgICAgICAgICAgICAgICAgICAgICAgICAgICAgICAgICAgICAgICAgICAgICAgICAgICAgICAgICAgICAgICAgICAgICAgICAgICAgICAgICAgICAgICAgICAgICAgICAgICAgICAgICAgICAgICAgICAgICAgICAgICAgICAgICAgICAgICAgICAgICAgICAgICAgICAgICAgICAgICAgICAgICAgICAgICAgICAgICAgICAgICAgICAgICAgICAgICAgICAgICAgICAgICAgICAgICAgICAgICAgICAgICAgICAgICAgICAgICAgICAgICAgICAgICAgICAgICAgICAgICAgICAgICAgICAgICAgICAgICAgICAgICAgICAgICAgICAgICAgICAgICAgICAgICAgICAgICAgICAgICAgICAgICAgICAgICAgICAgICAgICAgICAgICAgICAgICAgICAgICAgICAgICAgICAgICAgICAgICAgICAgICAgICAgICAgICAgICAgICAgICAgICAgICAgICAgICAgICAgICAgICAgICAgICAgICAgICAgICAgICAgICAgICAgICAgICAgICAgICAgICAgICAgICAgICAgICAgICAgICAgICAgICAgICAgICAgICAgICAgICAgICAgICAgICAgICAgICAgICAgICAgICAgICAgICAgICAgICAgICAgICAgICAgICAgICAgICAgICAgICAgICAgICAgICAgICAgICAgICAgICAgICAgICAgICAgICAgICAgICAgICAgICAgICAgICAgICAgICAgICAgICAgICAgICAgICAgICAgICAgICAgICAgICAgICAgICAgICAgICAgICAgICAgICAgICAgICAgICAgICAgICAgICAgICAgICAgICAgICAgICAgICAgICAgICAgICAgICAgICAgICAgICAgICAgICAgICAgICAgICAgICAgICAgICAgICAgICAgICAgICAgICAgICAgICAgICAgICAgICAgICAgICAgICAgICAgICAgICAgICAgICAgICAgICAgICAgICAgICAgICAgICAgICAgICAgICAgICAgICAgICAgICAgICAgICAgICAgICAgICAgICAgICAgICAgICAgICAgICAgICAgICAgICAgICAgICAgICAgICAgICAgICAgICAgICAgICAgICAgICAgICAgICAgICAgICAgICAgICAgICAgICAgICAgICAgICAgICAgICAgICAgICAgICAgICAgICAgICAgICAgICAgICAgICAgICAgICAgICAgICAgICAgICAgICAgICAgICAgICAgICAgICAgICAgICAgICAgICAgICAgICAgICAgICAgICAgICAgICAgICAgICAgICAgICAgICAgICAgICAgICAgICAgICAgICAgICAgICAgICAgICAgICAgICAgICAgICAgICAgICAgICAgICAgICAgICAgICAgICAgICAgICAgICAgICAgICAgICAgICAgICAgICAgICAgICAgICAgICAgICAgICAgICAgICAgICAgICAgICAgICAgICAgICAgICAgICAgICAgICAgICAgICAgICAgICAgICAgICAgICAgICAgICAgICAgICAgICAgICAgICAgICAgICAgICAgICAgICAgICAgICAgICAgICAgICAgICAgICAgICAgICAgICAgICAgICAgICAgICAgICAgICAgICAgICAgICAgICAgICAgICAgICAgICAgICAgICAgICAgICAgICAgICAgICAgICAgICAgICAgICAgICAgICAgICAgICAgICAgICAgICAgICAgICAgICAgICAgICAgICAgICAgICAgICAgICAgICAgICAgICAgICAgICAgICAgICAgICAgICAgICAgICAgICAgICAgICAgICAgICAgICAgICAgICAgICAgICAgICAgICAgICAgICAgICAgICAgICAgICAgICAgICAgPD94cGFja2V0IGVuZD0idyI/PgD/7QCMUGhvdG9zaG9wIDMuMAA4QklNBAQAAAAAAFMcAVoAAxslRxwCAAACAAIcAnQAP8KpIGV2YW53ZWlnaHRtYW4gLSBodHRwOi8vd3d3LnJlZGJ1YmJsZS5jb20vcGVvcGxlL2V2YW53ZWlnaHRtYQA4QklNBCUAAAAAABCt5v05svjr7RhkuJpY2uep/8IAEQgBrAHfAwEiAAIRAQMRAf/EAB8AAAEFAQEBAQEBAAAAAAAAAAMCBAEFAAYHCAkKC//EAMMQAAEDAwIEAwQGBAcGBAgGcwECAAMRBBIhBTETIhAGQVEyFGFxIweBIJFCFaFSM7EkYjAWwXLRQ5I0ggjhU0AlYxc18JNzolBEsoPxJlQ2ZJR0wmDShKMYcOInRTdls1V1pJXDhfLTRnaA40dWZrQJChkaKCkqODk6SElKV1hZWmdoaWp3eHl6hoeIiYqQlpeYmZqgpaanqKmqsLW2t7i5usDExcbHyMnK0NTV1tfY2drg5OXm5+jp6vP09fb3+Pn6/8QAHwEAAwEBAQEBAQEBAQAAAAAAAQIAAwQFBgcICQoL/8QAwxEAAgIBAwMDAgMFAgUCBASHAQACEQMQEiEEIDFBEwUwIjJRFEAGMyNhQhVxUjSBUCSRoUOxFgdiNVPw0SVgwUThcvEXgmM2cCZFVJInotIICQoYGRooKSo3ODk6RkdISUpVVldYWVpkZWZnaGlqc3R1dnd4eXqAg4SFhoeIiYqQk5SVlpeYmZqgo6SlpqeoqaqwsrO0tba3uLm6wMLDxMXGx8jJytDT1NXW19jZ2uDi4+Tl5ufo6ery8/T19vf4+fr/2wBDAAMCAgMCAgMDAwMEAwMEBQgFBQQEBQoHBwYIDAoMDAsKCwsNDhIQDQ4RDgsLEBYQERMUFRUVDA8XGBYUGBIUFRT/2wBDAQMEBAUEBQkFBQkUDQsNFBQUFBQUFBQUFBQUFBQUFBQUFBQUFBQUFBQUFBQUFBQUFBQUFBQUFBQUFBQUFBQUFBT/2gAMAwEAAhEDEQAAAfqnbVttW21bbVttW21bbVttW21bbVttW21bbVttW21bbVttW21bbVttW21bbVttW21bbVttW21bbVttW21bbVttW21bbVttW21bbVttW21bbVttW21bbVttW21bbVttW21bbVttW21bbVttW21bbVttW21bbVttW21bbVttW21bbVttW21bbVttW21bbVttW21bbVttW21bbVtoqdGqdAxF1cWLzRoTok221bbVttW21bbVttW21bbVttW21bbVttW21bbVttW21bbVttW21bbVttW2ip0VQrXeG+T8/R9Z+dfLiuXq9o4/h9z72NSXZaAx9F12/n2dPpn2H4F9O7eL6w0b0OGdtW21bbVttW21bbVttW21bbVttW21bbVttW21bbVttW21bbVtoqdHAqe+4j548+4u31fy0c8PbE7ZabbG22A22rbaMSit0R1XD3Xz/U3u/wCcH0D2cX0/kq3w22rbattq22rbattq22rbattq22rbattq22rbattq22rRuRU9dxngXmHF2eiedzPB37bZtttW21bbVttW2SaWbRt04rRO3x22I22r1j67/Ovu98PuTcD3u/NOjMJ21bbVttW21bbVttW21bbVttW21bbVttW2ipHV/KuO3a+HxvI9TbbLXbaG0ap0ap21bbVowjKqEo7ObbbXPbattq0TYIzeyLPL0J67k8p+lPY/gd16HD96T5n6X3cM7Y221bbVttW21bbVttW21bbVttW0atw/KfNXH12lLp8v0ttlO2ipfqdRSgujVt7uklnbR2HV6I7rYjr5tOzrtoqYkoIiv3mGrdxtz77bLbbUPmOo5rs5y/avxFd93H+h2rrHo5dtq22rbattq22rbattq22raAiJ85UHl/n+hE6fP7tokW21Y4H8Xm2jttSKZ+wIlo3ZdGMpndOG20NsQETh+659mrrbDbbYW2wttq22rU1zTb51u29Dk+lfpT8/P0C6OSds+e21bbVttW21bbVttW0IEH5NN5v5vpbbcPZtFoCyHdBqp0TDOW2jearcU7G1rWl1A0dXLtttnttWyrXN29hMcnTO0KZ2wttq22rbattq3OX/ADHXhtt2cyP0L/Pf7b1x9O223PttW21bbVttW21bbVHzV3nyzwdy1WJfM9Gm2iB7Zs4mlMgqqnaXbatoYOC1aZ7OXbZ122qDKt8NUrU+5ehia0wNa3um1VkxMNtq22rbattFV9K8Z+lx7ba577L+NPtLXH1fbbc+21bbVttW21bbVqS6+WsdfNWMG8X2bWdlapG4HC2nRHNHdZBtOgjaKl1W027ObbZl20VnU2uG2MWw5ehK5iO2wpZu6iA9tDbattq22rBLT6rW7b0uLbaG+6fhP9G9cLHbbYbbVttW21bbVtorjvjL1Ly3yPVzxo95Op9piNe1ds4XU1DqnVOQdZEU+uag7dnNtsRttUPJtOfaLBTrm6Ntgdtq2lhUMpiE7aG21bbVttEXNPWPoce22+e20Ou++vlP6s6OWds+e21bbVttW21aivPCc9PnmMvwvaQ6aKq6yVgsGRgQnbRwk1G2Uoievn22I20VLybPn2iyFYc3RG2B201EJrIFaaYbbVttW21bbVDNxznRkjbd/LttDRN8b689PQvp4ttiNtq22rbattqj4++vPhfh7SHmPL9OsbWdZKQgNUToJzYNfvjMRPVz7bVtoqXy3/NvBhWfPu40wDtKaU2bs4KTOhttW21bbVttWTNFqg223o8m2xXbat9KfPf6Ba42+2259tq22rbattq22rj/AJH+m/mjy/TnbcXa2rHrILOzFw5qwx1c8TtrnttW2mMWZHPJvttjrrapKDbxXt6fMEaGnattq22rbattq0ak0XMNvR49tmXbatt6Uw9Z+hUE6OPbYjbattq22rbattq8k+dPpH5q8r1D6R8fZVi1W2cNYnt5dtmG21bQ7UhtiK5OnbbPTbYDbattq22rbattq22rbaMQmi2zWy27+TbZl22rbdIYv3Oz6Xfk22dNtq22rbattq22rbauF+SPun4T870LEDgfnehz9NZ1vZy7bbZbRqyj2mWjZ7tydETsp22rbattq22rbattq22rbYmBDot8Vg27uXbYjbatt3ZFf9tO7jo5Z2zJttW21bbVttW21bbVttUfJ/1j5dz7/NBa6y8b2aih7GqfPm5vFbZVD91stI07J9tq22rbattq22rbattq22rbYnMR03ThMbdvNttDbatt7Cwrfspw435NE5l22rbattq22rbattq22rbasMmr4ja+/wDzj4vsWW2w6GoLGYUkXVeJromG21bbVttW21bbVttW21bZBlVLdn2c+23VhttDbatG+mGWh+rFK6OXbYrttW21bbVttW21bbVttW21bbVttQfiP7h8k5uj5vdUdt4/rl2wO21VzS5ppZ21bbVttW21bbVtGNsyq9s7OnHuzn220TbaG21Y9p9kvny/tu2/NtsRttW21bbVttW21bbVttW21bbVttW21ZKtXyt5X97fLHm+hwTmjLwd9tLCQXNOUZG2wto1TokjQFm62YqNrvlbVwt0Y7baJttW21bZyZt6V6t9C64Ut9trhttW21bbVttW21bbVttW21bbVttW21bbVttW21YRdXyt5V99fPfn9/hFTbcrz9BVA3Xg+NV5WtE1uE8bjzrtsw22rbaG21baKlPqX0lpn87fUvUq154nZl22rbattq22rbattq22rbattq22rbattq22rbattq22rJVq5H5S+20I/wCbE/ank2e/gm7TikedEg7bVttWyXJAN6B6Oy/O9v8AYfpb5/K/vPaZ8kzOZdtq22rbattq22rbattq22rbattq22rbattq22rbattq22rbattq22rROqGrvVwtB6zgfEx+4aPjNx6doct0pMRE7VttW21bbVttW21bbVttW21bbVttW21bbVttW21bbVttW21bbVttW21bbVttW21bbVttW21bbVttW21bbVttW21bbVttW21bbVttW21bbVttW21bbVttW21bbVttW21bbVttW21bbVttW21bbVttW21bbVttW21bbVttW21bbVttW21bbVttW21bbVttW21bbVttW21bbV//2gAIAQEAAQUC/wCnUVSJjf6RtQ47yCX/AH63+72W1pvfrM2m3d19aV7I7nxxvly59zvrpmNKnyY3yY3bXlzZmx8e71YvZ/rLsbsoWmRP++3cN1s9qh3P60beN7j4z3nc3Tq/mvAniaTadz/317z4w2zZDu/1j7lfORa5pf5yWcIYlWmTwV9YY3I/76N88abbsZ3rxxue8sAJ/nVKCXJcFXcgKHgv6xjbFKgof75N88WbdsA3zx1uW8sAJH87JcANSio/d8GeO5fDyrW6hvbf/fDvfijb9gG9fWDuW6fz6lBIkmK/5nwp4uuvC9zsPjXbPEH+r1yJiR4m+sZcylErX/PLWECSQyH+YjhK2iJKGQFPbPFm7bS9n+sy0uXDMieP/VW6bpbbPZ+KPF9z4jX/AD8kgjC1lZ/mIrf721eK7/w9ceEfG9r4pj/1R4k8V2nhyLd94u98u/vIt3iA1RJU5IsPvSXGLJqfvoiMjjiEf3pFYIdvcS2k/gjxejxRYf6m8W+PEbWZpZLib70MeP3FCo7rWECSYr/mERKW0W4T/MKTmlaShT2XeLjYNz26/h3Sx/1GpQSnxd4/VdEAJH3oU5L+4s4p7SzhDKio/eRCpbRbpT/N3w6u31R75VP+oppo7eLxd40k35X8xbfduFPg5biv30RmRxwJR/O3p6+3hjcv0P4i/wBQ3E8drD4t8XSeIpe4FWIVllJT9yBeKu61hAXJRySmT78ds+H89OrKbsoZJ8P3x3LY/wCfWtMafGXi5XiCf7kCMUuVOaPuInKX7wlquXNNi1LKz91KSsxQiP8An1qwR9z6tpOZ4L/n/H/iv36VKSpqQUd4UZr7Hh96WfBk1+9HGZChAQGAVPkLfu6mQUn+avFUj+59Vhr4R/nvHvig7PaAYiFNI1DJPaBOKO0xpH92af78URkKQEgCpRb0fDvcDo/mrpecv3PqwRj4N/nd43SHZtuv76bc71gUDlFJAKnvcez34OafL78MPMYFHHGZChAQPuXCun+ZlXy0fd8A2/uvg/8AnfrD3/8ASW5uIVk7XH7yL953nVVfYnESzGT78MOfaKHJgU+9IvNX8zeSVV9xQJTYWosbH+c8V73+gdm7W3t9rn2gaEHINasE9lKCBJIZD96GHNhxQU+/PLX+akXy0E1P3PCFj+kvFH879Ym8fpHe+1t3ueLRIUP3lrkKy1rCBJIZD96CHPtFDj9+Wb+bupc1fd+qHbedun85vW5J2jaitciu1sevtc/dXIIwtZWfvQw5doYsfvE0Es2X83czctP3vq42r9F+FP5z60txwtWUKT2ScSlWQcysl95JBGFKKz96GDLtBHX7y1hAXIVn+akWI0rWVq+7sO1HfN5SkIT/ADnji+/SHimKIR9pkYKaVlDVMpX3JZsGSVH70MHaJGavuyTBDJyP80TiJ5jKr731R7Hp/OSyJhjjkVdy9rj9392W4/mIYO8CcUdyQHJPX+duJ+afvbfYTbpfbVtsWz7d/OeL7n3TwzEnCPtcex3XIIxJMZP5iGDH7kR+j7LnAalFZ/nLi45n8x9Vfhj3a3/nfrGk5fhQcO1yde0txRk1++BkYoRH91EhjfvJallX87wdxccz+Y8DeEj4n3FKAhP879Z3/GNI1R2kOS+Alnz/AJiOMyGOMRj/AFGTiJ7jm/zHhvw7c+J9y2rarfZrD+e+stGXheA1jazihzy5H78UBWwAkf6jUsITNOZj9/w/4fuvEu4bBsNr4d2/+f8AG9ubrwrbHtN+7nVgj7wFTFb4/wCpZJBEmWUyq+/4c8NXfie+2LYbTw9Yf6gniTcQ8lVhdNYyRdex92OAraECMf6kmnEQWsyK+/4S8I3Xiq62rabXZbL/AFF9Ye2e4eIolZodxFquFSO6IFKaIEo/1NPc8pk5H7/gzwRN4nlsrGDbrX/Uf1h7R+kthtl6taAsKQUHBJYAH+p7i6x/mfBHgFfiBUMCLeL/AFIpOQ8QbQdh3lCs0ulWbdJZt1BkU/1LPdV/mfAv1eK3JpQED/U31lbL73tkC8VfcIq5Icf9RKWECa5Mv8z4G+rjD/VMkaZY982hWxbtDJmPuzR4n+flu0oa1mQ/fggkup/BP1eR7H/qv6wvDx3Tbkqo45AsfcWMkfzsl2lLkuFyfzOz7Neb9eeE/BVn4Wh/1Z458KHZrlJKTHMF/cWrFH80uRKGu9a5VSfzXhPwLeeJlbNslpsNn/q2WJE8fi/wWvYS0yqSxcv3lrkK/wCYVMhDVegNdzIv+btraa9uPCn1WR27SgJT/q9aAtPjLwYdkV2lvDUyrLE8gYvJA/fi/fmb5TN3IWqRSv5wkB+HPq33Le3sPhmw8OW/++JSQseKPq6UhcqCk/6irR7F9XO770fD3gPavDx/3zb34X2/xAnxf4GvPDSv5/bdpvd4Xs/1R3lw9k8H7V4f/wB9RFXu/wBWuybqq++qC+id/wCC9821rPKVx+8VBLtoJb1dj4B3/cHt31PTqe2fVvsW2NEaY0/7757WG6TdeB9gu3L9V3h6Rq+qPZC/9lDsrj+qfYkOP6tfDkZtvC2z2bSgIH/Tpn//2gAIAQMRAT8B/wB7Po/tUcE5MemHqjFAejQ0MIy8hy4KFx/ZQCeAw6Y/2mMIw8dxkAyluZ4/UfsQBPhh0xPMmMRHx3yn+XZPHfhII8/Xx4zkLDGIeO/wylfYBuREBMRLy5cAHI+riwGXJQNvA7zIBMr1HLGH5oFa5Wcb+nhwesvoSn+WoFscf5tAduTxpMUfo4MNfdLvJplO9YxtArvynTJ9Dp8V/ce8mkyvWML5R9CZs6ZO/HDfKkCuO6UqSb1hD1R9CRoa5e/p4bY33SlSedYR+lklZ1mbPdjjulXdKVdkY/n9Kcq41PAT3dKPuvtlP8uyEPz+lKW1JvXIfTv6X8JOpIDKd9kYV5+lKW1JvUmgk339N+HSRpJvUC2Ma+lKW1JvXwylf0OlPkaZPOsYEoFfSlOk86k0ylu+jhltnpKO59tEQPpzn6DsJASb+nhnuj9WeT0HZKVJN/UwT2S+mZgJkT2SnSTf1sGb+zLv3AJy/kmRPbKf5fsOHP8A2ZOSX5Nl3l3l3HuMwEyMv2MTIRkBbHZbvCcn5JkT+0W7i2f97O//2gAIAQIRAT8B/wB7Pv8AapZ4RZdUfROaZ9XcfzbKMko+C4s5kdsv2UkR5LPqR/ZZZJT890YmTGO1hO+D+xEgeWfUgcRZTlPz3xx/n2QyehQQfH18mUYxyzySn57wLYQrsMhFMyUSMfDhzmXB+rlziHASSTZ74wMmMRHW68ssn5JN64CxNfTzZ/SP0IY/U6lll/JJJ89uL8WkfH0c+a/tj3gWwhWspiLKRl34B5OkPodRlr7R3xjuYxEdZzrhPP0MQ2x0h35J7I2k3z3RjuQNus5+g+jAbjrDv6ie6Vd0IbkCtZz9B9LFHaL1h47py2xJfPbCF8vjWc/y+lihuN/S6o/bXbDH+fZOfoPpQhvKBQrWA7+q/FWoiZMYV2TyXwPpQgZljHaK1Av6HVfj0jHcUCtSaZTv6UMZmgCPjUcoFfQ6oeDpi8ayyAJN/Sx493JQK1AtAr6OaO6GkZ7X3U5Cfp48V8l8agWgV9PNDbL6uPF6nsAtAr6meG+P044jJjAR7BG/r58PO6PeISKMH5sYRj2eUR/P9hzYL+6LigD5dofbi+3FEQO4QQK/Y9g8uxo9nLtKINftNf72f//aAAgBAQAGPwL/AKdR6lBPzL/xmH/DD6Jo1/2VA/79a3d1Db/7sWASyIEz3h/2GjEfiqj/AItYwwj1lWVn9VGa33JB8oY0p/0X9NfXUv8AamV/deoy/tav92n8H7Cfwdbe5ng/3VKpLANwi7QPy3CNfxFGmO+jNhJ+2TlH+Pl9rCkkKSdQR/vu5l5cx26P5aqVZTt9qu5P+my/Ro/u/wADOd4YEf6Xa9A/Hj+tlXFR4qOpP83b7fIvKzuVYJQf72s8KfA/1/77CiafmT/6RD1L/wBD7WUWiU7fF6jqk/HgGZZVqllPGSRWSj9v87QaliRK1IkSahaDQg/Bx2G5qTHeHpjn4Jl+HwV/D/vpVGqT3i5H94h1I+fkGpAk9ytj/e4Dqfmvj+FHoP53Uug0HehFQ0WO7yFUPCO8V+X4L+H8r8fVgg1H++Upnlzn8reLVZ/ufayhCvcbY/3uFXUfmr+49P57p1Pq6nX7ybW7yn23gPNUHy9R8PwaJ4JEywrFUrSdD/vi/jM1Zj7MEeqz9n91qRbf632/+wzWQ/5Xl9n4s/Hj8f56pfoP5nprPZLP0luf+DJ9D/C8YpFQT/6RcdKz8vX7P9XlS1BKUipJ4BrttoOMfA3dNT/Y/utS1KK1r1UtRqSfif5+p/mvQPg9QwIbxS4h/ep/pE/3R+LEe4Rmyk/0wdUf4+TTJGtMiFahSTUH/Varm6lEUSf1n0HqWqMVt7CukFdVfFf9z/UNT/M1V+H3ibGQCOvVCvWNf2f3GYyPdr9Ht25PH+Un1H+qev6a6UKx26TqfifQfF+8Xkmah7CB7MfwA+/1fg+D4P1H3qJ1Lr/M+p9fvKPaOeCRUU0ZyQtPEFnmAR38Ok0Y4H+UPgf9TyWe34zXvsqkPsRf3T8Pxa5pVqlmWaqWs1J+/U8fuH7mr9B/MaB66n+YIPmyD2hvrf24zqiui0+aS4Lu3VnDMkLSf9SEk0A4lrs9qkKYeC7tPFXwR/d/D1dBp9/4D7pPeg1Lqdfv+gf7R/m0nvdbTIr2fp4fl+YfjQ/af9RrllWI40CqlKNAGq1tCY9t8zwM3z/k/D8fT+ZV93HtRP4/f0/F+p/nUj4d9vu64oTKErP8hXSf4f8AUS5ZViOJAyUpXAB8mKse3pPSjgZP5Sv7n+2PucHr9z5/dyU/Qen36q/D+fV3I9XYXRNVSwIWr501/wBQFSiEpAqSfJ+72yinbYzp/sY/tH4en4/dr5nsfu+ofAvQfi6nU+jqfvUD9T/PqP3durqU5o/Bah/qBe12iv4ug0nkH5z+x8h5vR69/h3P36DU/f8Ah6ug7aPh21/m6ev3YfhLL/wb+fFpbKpe3A9of3tH7Xz9P9B09O1O/wA+5+9RP4/f+DoODoH1a/cr/N/AafdtD+2uU/72f56e8n/dxitBxUfIBzXdwazSqyNPL4D4D7hdPuD7tBw+/r7L0fwen3QP5oq+9tSPWHP/AAur+v8AnvcIj/FrQ9X8qT/Q/u9h9xP3Pl3qX8Pv1Ps9qnh/qHD0+6QOJ0Dt7ZPswxpjH2Cn87NcD9+fo4R/LPD+79j1JUfMnz7HuPk6uvavepfw9Pv1PDtVX4ffxH80VOv3dsg8ucJFfJPV/V/Pe6oNYbPp+azx/DQfj3V3T20fDvUuv36nh2qeP36J/H+boOA+9e3yvZgjESfmrU/qH6/526vFcIUFQHqfIfi1LkOUiyVKV6k8e57p+7Uup+/U8O1Tx+/QcP5ug9o/ftchSW5/jC/8rh/vOP8AO2dgk/vV81fyTw/Wf1dtR2q6j73xdT9+quHp2yP3tX8PT+bJLKjx+9Z2A4TLounkjir9TCUigGgA/nbuhqmGkCfs1P6yX8e3wPbT7tOJdT9/JX4fzGmpev8AN1PB/Dy+/dbtInj9BD8vzH+AfYf51S1aJSKly3K9VTLMh+01/maJ/H+YyV+Hf5/cqX06D+doPZ/h+/BZ24rNOrBPw+P2cXb2cApFCgIHx+P87ucnnyFJH26NI+H39X6D0/mKq4/cHfTUvX+dxT7P8P8AMHebhNJZ0426T5R/tfb/AAfP+euR+2uNP+9hjuB3on8XX79A68T93R8A9T/PYp9n+H+YymSf0dAfplftn9gf1/D5sJSAlI0AH88PjcRsdye1Bw/mNHp/qSpdBon+YFrb9KBrNMRpGn+76BxWlqjCGMfafif59Z/ZmjP+9Mdie1Bw/mKnQOg/1JU8H/J9P5gWtqOGskpHTEPU/wBxotLVFEjVSz7S1ep/1BuKU8Ux8z/BOX9TI+3sX8fv6OqtT6f6lqXU/h/Me723RGn97cKHTGP6z6BotLOPFA1Uo+0s+pPr/qGSJYqhaSkj4NdvJ7cKzEr7DTsWPvegen+pfj6Op4/zBw+hsoz9Lckf7yn1P8DRa2kQihR+JPqfj/qNUyR9Hdo5g/tDRX/IP4sHsR5F+o9e/Cnzfqf9TUGqnU6/zAnlyh21J1l85Pgn+647e2iTDBGKJQny/wBSLlQnKa0POT8R+Yfh/A6eR7Uer4D8Hw/1Pijj6/zKby+Co9sHBPBU/wDy78WiOJCY40DFKEigA9P9SkEVHoXcWnCNJzi/sHh/c+x176aPTV6/6lxR+P8AMo3HdEFFpxitjxl+Kv5Pw8/4QEgADgB/qdO4Rp+ltPbp5xnj+HH8XTyP3ddXUcP9RVJo6DRP8zHuG7x9ftRWavy/Ffx+H+qVIWMkKFCD5u4slVxQaxqPmg8P7n2Onn96o4f6gonqLqo/zCIYUKlmkNEoSKktF7uGM248Up4ph+Xqfj/qsXkCMrq1qaDiuPzH9f8Aw7Cgft+8R/PadRep09B/Mi2souZJ+ZR0Sgeqi8k/T3qxRdwofqHoP9WqvrZH8QlV1BP95Uf+QT/t+TqNH6H7hP8AN9Ro+gfaX1H+aTMa2m311nI1X/Y/u8Pm021lCIo+J9VH1J8z/q5UciBJGoUUlQqCGq6tAZNu8xxMH91Px7cX7L4PX+Y1U+kV+b40Hw/m0QW8S551+zHGKktF1vOM8nEWg1Qn+1+1/B82EgUA0oP98BSoZJPEFqvLNOW3n2kf6T/y7/B3oj8X7Zftl60L9h+x+t+yHxp8nqon+c1aZrkHbrT9qRP0ivkn+6+XZQBBPtyq1Wv5n/fGQRUHyLXdbQkFPFVn6f2P7jkiUlSJE9KkqFCk/H/UgXJH+jrY/wB8uB1fYjj+NGmWOL3m7H/AifVQ+XkPs/3z/wAah+lHszx6LT9v91mdJN3YH+/JT+7/ALQ/r/1BjY2kt15VjT0j5q4BpXuV0m1R/pUHWv8AHgP1sG0tU87/AE+Tqk/H+5/vrK0wqsZT+a1OI/weDrZ38FwPSZJjP6qv6XbJlJ/ag+lH+8spXWNQ/KsUP39SA8LeGW4V6QoK/wCBgp25UKT+a5UEfq4/qYN9uKI/VFsiv+9H+4wr3T3uQfnujn+rh+phKEhKRwA8v9+GM0SJk+kiQX17TbD/AHWjD+B9NrJD/YnX/WXpJeJ+U3+g/wB9ff7mH9x6+9Sf2pywf0dmf5cq1f1scna7RBH5uSmv4uiRQeg/6dN//8QAMxABAAMAAgICAgIDAQEAAAILAREAITFBUWFxgZGhscHw0RDh8SAwQFBgcICQoLDA0OD/2gAIAQEAAT8h/wD4Tpuf8KkDzBXMg/5d1GGPFSbn/wCsZs2GVSQ+ADl+riFcf2p+g3O/8Ml/ZRx/9VhH9qJBPh5+MV6TXnT93/5Ok3H9bIi/4AMV7omD+2/M1GHzYv7/AEB7onxE5EeEf/1d41Ml8Acr6K2ZMF+wNf2UgE/R/uajM/8AaQuv/wCW7aX6ew8UxOMPmZ//AFTNmx6P/wB44+wqbBzB/sfgPu873w+Qmf8A82Q/0dP/AMcncKOEsVsoE3y6Txx0hyzn/wCpp/47LNm73/lZ9N6YpPC/I/B80yADl9//AJosxFkf7Z/6oEnI1N4hmXxXv9FAZISIyP8A+o5s3IHz+Zjp7gVJ/NxP8/1D7sYEB0f/AJ2L/AWRkv8A8Ut94J9r93rz4IiVzofX/wCoZpciMg/1x7gWQU2RG/f+r8rGrtSnVeXy/wD50gIC5p8P/wCTD9md3/i9dukiXNYM9zSfY0bP/wCmTWGMXgDlW9mGXyYPB7/Rw1Z1SDyya/8A5/4GFkbx0eP/AMnf++g5ry3EBOdO638XmeCX8As/ayRd/b7ke6HIocDyJzZ//SZvbKB16g5TwUOj+keEOf0Pbv8A+garXwd3/Bh/+Ryx3Y4//FppTR33GePuDToBmRh5P/Qeeln/APR5ps60Y/J+59S3kUXBJ+l88vf/AOIJYOaQTto4x/FJ6eyrv/8AEl+QdVJjL5f/AMhrDPLd77X/AOL0iT/yfgk48o/13Q4NPoD/ADBk8L/+izUoA8ovc/8Axfg6o1cfv/I//HG7nHr/APBAvJ/+CXL6uf8ASf8A5HgTy3e/rXj4/wDxnwoXlaP+ObMbIr8RPww3ywRKHp8JwnT/APog5jSjAF5IiyPJ4D96GAAeP/x895H/APD6WP8Av/giWYEv/wAfBHsbpv2cX+P/AMr2xI/60zRTekwfwoP/ANCprsIRYnKtNBmPyPw/I0P/AMg4vcf/AIeP7NcS5dGJ/wDjPYytR+Z//Nn8SX/Z5LZcf0JL6p/+greglAuVa318uk49Hjpy7/8AgIoCX1fAfmsQIf8A8ARPH/4E6eeilNK5+H/b/wDEbZvD4UAQEH/5086mD/vrclmdePc/yn/9AV+pOAHKtdSIdUXg8en22I//ABEBA88n/wCHLfupY/2dcplpim//AIoyS/xdD7f/AM/1Cf8A4DmtKQPxJ+g//QH5XacfT2fZzplGBN47H/eQ4a/8VeWuPi//ABlw/wBJUarK9/8A4oyZ2qHHz7/5xhaJ4fLYTr4mxgQ//lx3d/8A4WE8CPz/APz2buo+8T8mn2aIBhUF5dabKpDHj/mx3r/vzfP/AMXK/wA//jTjg92FECvEK0taeOqBwz4/6L5Bx/8Ay5H/APCv85U/6/8AzkAfwwPaWA+aG3wy8fUYUJzzlijwf8/ZbF+WXjD/AK8vL/8AgUEuFSef8/8A8aKcfyoCAAdXAZ5Ngw+//wAMXkb/APleljPm8s+f/wABzZUyD8z/APmi2Ll8Hx3/AI58vh/z99/6PyL+1/8AgmzoR/00SAqEGeP/AOObwfyoAAYFWGPj5oCAg/8AwrAviyL1wf8A5UQONPz/APhJ9TiO1wu6HwAX9P8A80426nv+AavSu8oGeUu1fL/wSng/6NqivCmA4f8Agp+FWWXl5/5KTL410/8AxvC/HzR0H0X3Lr/8bkOdv/5RtdVWXKy//hxGYw97/wCv3T/83hy+PEJf0/6Of0/6fwP/ABvWeKGNc+mzJw6P+foZZC46PH/45X1zzQ4Av+Vx/wDj52+f/wAt/wDft/8AxRO5LO6Q+Bvv/wDMPMf8IRKD7vua6Slfar/2APJ/1b9v/wAP4iHmo0+v/wAc/wDH8/8AIne4PH/4gRWCrLH+X/5e6eD0f/ik2WDtrs3hT/jj/wDNLqLBPi19TfNIlQ/4ojkpHwf8lo4M/wDwajehZyS//j4l6eX/AD0jo/8AxShfBdln/wCWcLZeRl1/+KTGGi0NfwfuKbg8BAHj/wDMmtwK34f4LqgS752JNpyH+j/jUuKNCwev/wAAGHw+K4SV7/8AxzQGdf8AGP0a0wIw/wDw4H+hXkUv/wCWaJA5bI+Dw/8Axxdiz+Gl8un/AOaMfLN4DW/nTSMv5/6J+D/+L+1/0vPz5/8AxxQPx/1s9/8A4AskFWZ8jt//ADFAlwvjL/8AjQK9wyXK9AV6L7q7GHK9rK/P/wCapufZBD+aYuB/0oJ5f/wTRb4uV/8AjQSwa0obdTx/+CT4Y/5wT1cf+pZQp/8AzFizn5j/AI4//GbXykBh7vkzPT/85/m9r/Bf0P8Avw7f+j3WkcmX3/8AjeAlboPl8f8A4fXHpr0h/wDnOKBVgO66cO//AOQi8jeA5hvfMOPBFLCEFAHj/wDOUF4H7a5Pr/vylVJFgK0sf5//AJEBHy2Gcu3z/wDohIkBXXG/v/8AHzTrjk0872vs+BbglAnU7TtXV/8Az1J7/wDA/u/EpP8AnrI/54q/v/8AI/8ARFsYIP8A9EZPFeMDj/8AIQX8T7+SPXJ+NvtZLVy/l/WHX/6Ad0xf0U36v+P8/wA2Vjlh/wDjSIS+ChD+gf8A6L+OIct68ddD/wDIj7kZj+0/b6Jb5GAPt95frggI/wD0H3gKJENcyfO3+p/yM+qNeh//ABbb87zYYfv/APRdNr4qWc//AI3PFEpxEwD/AIPQ56HjfAG9pO15/wD0NkEMwZkX8q/Cj/wJBdnj1P8AhvG3wb5rcfu//Ri/8aV1RTy//jN425YILGHf43gcG8QDl7AP82e5/wD0RM2aCUSP3X5Fgcp0H/khf/LEvy6ryGrhQfB/+j6Unv4V1Xz/APkLpSdPQHk8uTweQKhQQ2ADgjr/APRSMGIeBoNGRfO347cQHf8AxAhBPF5g/tecFK4Ef/okxdy53/8AkZDlg81Tizcer68OXbKCq0AgD4//AEfeqZ7IX7o+Htdy/wCz/wDCZgQu/Xw8f/oTeEv4o/Pz/wDkfG/Gz8VfHwM+n+Sd7hH/AOkGta44OJZsH3s3+V7V2XD9/wD4vOTrx/8AoEj/AEJd8Hx/+RtdB5+A/wAixCVh+n+z9Ty//pUTJwX+xkQ+ErpFydGyPhOT/wDD8Zf/AJrhLhcP63F6E+h/+TK+4Ufpoft6GsAMxjHj/X33OR/+lpN5/wDiY7j0nD0sd1KiXm4D8f8A+D4i/wDy+HfTuxyVEtX11+P/AMni+jGnewPPjq3pFCo9Oe/zvY/HH/6c5iRBLkTuu0rr9J78HTvz/wA4+R4avf4NfH82p+HR/wDkcQHo25y+3C4HxsXv/wDKcrEI/W8eXiwEyvyud9vVARGAEAf/AKgHCCASJVtKk9X/AH/lnH/JTE87y35bxP2s3+cJTuH5s6J4D5VvHD4L+zh//MF1FYYWmD93Hz5cNTkMP7G344JwP/1GZY0Og1AZ5kS7W5988JxZaSJvCB0bx/8AoSITy4Hb8X5RQMoFQ6M2ev8ACnytj/8AUsUxgUI/3h6keqoadiq9XB+PxlkSen/85YJcDdsnnMpqez9jeM7LEnpf6CyxZN2vvx8QLH/6pjogjyN1Pmnb5Q/rPuz/ACH9cTA/gsk+LRB55J9hYl8kgvpowk08n/4v3SN9sbt+jSGu6D9my55Ok0+m2mrPiePA4B4D/wDV8X1v2P4bK/Nz/wCNA/zt5KzPoy/ugO6ngP8AgOAsSBd/rmNnHBw/ipoUp8BAWPX/APCZ/9oADAMBAAIRAxEAABAAAAAAAAAAAAAAAAAAAAAAAAAAAAAAAAAAAAAAAAAAAAAAAAAAAAAAAAAAAAAAAAAAAAAAAAAAAAAQwMQIAAAAAAAAAAAAAAAAAAAAAAQPUFKJJHMQAAAAAAAAAAAAAAAAAAQfMmIAMMKXDMAAAAAAAAAAAAAAAABb+gMMMMMOxIEGwIwAAAAAAAAAAAAAAIIM88MNokEEFflF2MAAAAAAAAAAzBsMc87cIYeEVAuAMMPcAAAAAAAAAobksML77xjAEaoAEMMNFIoAAAAAAArgFqcsI+iMEI0YUMMMMMMG4AAAAAADrse66MMgkEHp/dusMMMeMOkAAAAABIz5Kb+WaIES4xT58MMMNyAP8AAAAAD6bYpcoYIEGO377bYMMMJkINUAAAAB6F3M8I+oEVGH7rNsMMMO8INAIAAAADbb8OTqkEVLRbIbMMMMM0AMMAAAAAABbxcGOAETMFJf+MMMMNKAMMFIAAAAABPAusEE/AAMMMMMMMLkIMNRMAAAAAADHJoE2kOMMMMMMMMCkMMMRQAAAAAAACbgm3HMMMMMMMMMB6AMMRpAAAAAAAABD+ymYsMMMMMMMGoAMN5AAAAAAAAAAABm3758MMMMM3MAIMNOIAAAAAAAAAAAABOWLgI4lkdMMMMQgAAAAAAAAAAAAAABCmWKCOEIAMENzOAAAAAAAAAAAAAAAABDWQIsMMWeqLAAAAAAAAAAAAAAAAAAAABACJCNEAAAAAAAAAAAAAAAAAAAAAAAAAAAAAAAAAAAAAAAAAAAAAAAAAAAAAAAAAAAAAAAAAAAAAAAAAAAD//EADMRAQEBAAMAAQIFBQEBAAEBCQEAESExEEFRYSBx8JGBobHRweHxMEBQYHCAkKCwwNDg/9oACAEDEQE/EP8A9ju//wAoBXAudzCHy980H0WH08gFm6//ABXcOZnLy6za35fhlODIfQ//AAkcGxHSQ+H8TwbfBF158+12org/++MOvrB4PxqDW14fgdceadghNZE7/wDp8SkQ+D3PwGzPfQ9JYHT0O6dWPT/5HPBfBRx+L4vgir34iw8BwA/G9T/8PtYMOfc92AaycD1XCcPx9B4eB/8Aho+P4s8PwGeZnz63JDOCyz8WnnnU/G2Tr5gAOvPnx8AzvX1HlC68fw71u8+Lo/HyHtj3Zh4ncla+6usGf/Hgj4/+M4UDDD8JnDuVe/fngZ7v4jOO7fEIstd/Fqvo/DhxHnv35IfT3fxEJFr7mfjHPuPReZOB6GuXc9b+MBzO9fS2tGv43zPv4JkXPqdYTr/8jH3kWvqg1tv/AMOPxXX3lXqDr/8AIuJ3JWvonWZf/HOfiMTbtW/N/L/5Yw/f03Wd6/8Ay6i2+nmf/Jc5tPwAGd6//QRHpt/+Lx3cb8/h0uJ3Itf/ALC8nNtx5jZ49pgOl27+BcNbfid//gYn9SQD4fW+9A/Nr8ynzd9/geLrOZjn/wDDKzeLsOIbptPr5x9ZB8yN9Fdi/wD5Aj5vuX3rX/8AY3//2gAIAQIRAT8Q/wD2O0O7H1//ACVDlbjd1kuHwivavveUfOD/APFM0jGc5jnZb+BSHp3D9R/+ELquMNZjX+IFcLPmgBx7h/duVX/30nb6Tuq64/EiwgOv4COb5/ie1SWMO9f/AE+c2+dH4+g6hOPUQJEWvpYnzOsf/kuGt8tLv4jmRg468QGvh7V+HfXx7/8AFq04/Giwh5NvhGfMhz+Pm8H2f/DHvz+NFhCcejxdyVr/APDF87v4yZSNXf4nf2jGHpkPLr/8M0uvD2/j4Z0fiRb8QDD3OHnv/wCPKPn0Z+ITEutfwo9dQAw9y4jz/wDHnHV9vA1yDD8WI+v8HbMuwM6/Bjz/APFMCAh7yb+N6Ps9Y4j5vrwb/wDMGAOoMHujCDDPxjh+XjYRnD0zrO8Ov/kx9ozPQ1hZ/wD4c/iA8/ncCcs71/8Aj1KvggOHqLCM/wDx3ie8mck+L5v/AOXzky+OA4HqPiAZ/wDLv/62CuHNh9eOOvXcHT/6amdn/wAs3gueeCP4t9bk9QBwf/ZRF7nub1dSTPe6Q/AD0s+f/wAFuR/iYc8nxfZlfiD+Lpi66/Ac9SPcHT/8NV4cyjqQ+LHzGBdENfUYJ1/+RhYsP/2O/9oACAEBAAE/EP8A+BCbP/JLM2bJZP8Ak2T/APWU7V92HzVHLZK5P+RD8rW0YxE6GtPYP0tjZhM0Z4f/ANWzNmLNQd2IWTMA1Pey+gtZPUpXepxPdDDHjHypET4lU2IlGHo/GhWSbz+OQH4qJe5Cb7k0P/bf1QSGeQP6sCTGIA+nD0kfNNWEYhvGjvNI8UrpZpAfjJ50mLSD0gYiIiebNn/9VSHdk5GsthnhHa+kL6s71nCM4kD6+VWfupBhOIr9kPVXltTFXlT9i2Xv+9/f/wCSYvn8Z/Xmg7mwks3qfEhglQJ4vGc//qhBzlQUu5+A5Qgk5eS++rJ64QrEbuPDp13rCPl6M5JHOTFyR3PW/mf/AMriwuUSD4Tj5VsMXDBdCgkRIsmcyHDgnphDdwsOlDN//U0Cyeeb7hrkmSmoYXhTnnssfrLDIG2lT8BQDl5fLztP/wAxOTzcr8XcK9/4RcnxPP8Aw3gwLE/37yqppWVxKKnApVkiQFR0GCSI9kd//qOG7xUBNEguDmAiKDDMiHCuWdZkkeoBozDsLyoos6BDnnrmb+//AMxwVwNV6spHxS4fHmrFr2/6/wDwxO98WWYRDKPFz9p2IbC+kszwo/wc5onX/wCoIbt4Ske84gT5Lpnq8yt6AOo+gRLhQmpc3Ico6nayt59fc/8A5qIQuXl9FeZz4Dr8/wD5HEZ/5/n9819xH/rlnPIcWQSpQxImRQADYnQdhQ82HmzPD/8ApMxZsKUzi5KUMABVfFiD6nnwBRB0sy2UQFdO5ZV9q2Z5/mf/AM5QufYtePB+P/8AITz6rs58jl+LlN7DLTIXQAMDh9J081E2mKo4SKjonqvxLOO7lATPrefNDedy/RJA+RqTv/8ASGw4OriurZSYfgGAVh6Gy5xENQqEcghXKUineZfln935/wDwR9/Fk8lkeGfj/wDIaL8PN/4r9Zeg6ev/AMgEASsA2ggy8j4Pm4ABh1/+CJTzx/8AKmNolHcBNHNAAqZXGtjX43PJJBmEVQ4EY/8A0aagriy5OQQUJLiGwgKKswoJ50pdQC5iJQAf/hQgVcBSk3isB8tOgp9rC0Po4bnXaJ7H/wDDxPrn1Z55Mer4q1b88n/4zeLvY+MUSBJyH8f/AIvYuPngsqq6utNi6AFwnG6KICjIpexQzx3WWLjkkoOP/wBEmwBarxwnjmoPwxOiLKLgug4leiACAAAAU/H/AOIzIi+j/wDADuiH/tOP+qThGdlqqJ6m1+WkHH/4v8mtQ3lgVcQLpw/FAEEHQCP/AMfVNH9WdOeJ8+/+MCQRmfCSFIownpSZYo45gllTyAR0a8f/AKFNZdKJBqq8Ad0DxlU/hWPl5+AhdSMjH49677d7/wDxicJwvL1/+E/KMfLTC/uygnj/AGPuskr2/wD4psSynJ5+LEDB3xfBYAgzwM//ACgB4lfTP9/8/nqvADFUMUWAEjmbIp/+gsKKDqAqUGAAZWva0wXjwMPiccsOGA9Yf/kF5iPpFP8A8EIXn+GKhEgEq9Vpp4U8vx6uTMRPMf8A4e7Febq4LAB+MPgs/Mf/AJhGvc+3/wAvzz/xWsW0GincqPkPJN8n9/8A6CYaZ5CVMACv4flUUh5Agx9AYlG7x8/9ke5oE2QRA9Cy3+7j/wDAxzPnw3vmbD4fx/zJ6/lblXMu8r4LDnHt/wDxAoAVcANbkx5Hd8v+qaMPRh/+bynvL2WJXoz/AHT/AIpUCKvEpjVepQ8qfYi+qcf/AJ0xT/2dNShgAKrxeHgmSpMDISvKAY28/wC//wAG8O72HVZmFZ9u3hAEjyRRkn/pQ4+gOR92LKD9P92YRh8mn1Rak+f44LNiXAcHwf8A4hr0/Hs0MWpsePi/5lk8/wD5pr96fMZ/VVdWXz/1QXwjT10xfBD/APPEwNhGMxaoVHeY6TiNzUuNj/fBYOWXfJ/2ABP/AIl0+aryRxJZm9OfxTg//DE2V9hfyvlrF3auWzO//h4YmoYfHukxB2efk2ZqkfCl6t8CspLfCnTi6/15/wDy43Y0fBv+v/wHJVEX0QS/yv8A+dIWFO0B6jeRD2jWQjTCgOUO97+eeeWllxw7u4ginpqsuVD8/wDBB/6nVOP+Og8Pza//AIfwoP8ABfPvn/8AD9NlTzvP0USLgH+d0NSoJYNi4/3TYIfAi/r/AIT6aTqf/wAuMjIQ+Tn9v6//AABpY74//NH5shkQ2iPYf2tQVSTASlETNIJeBXVVHA1YPdAfoP8AkbO39iuHyj+1AAEBh/2OT6//AMDhANV6qKXteH/X/wDHqYGVOfUoPiMDC9I3PF9XEJ7XL/8AhiXl49H/AL/+UXPMA8riqomVSvl//BAE8d/FQ8rf7/zPz/8Ammc5XYWNHDE90dP8c04KRniZfX/RGnS0jJx/r/3/AO2CX+Q7/wCTQ78pf4rko+PP2/8A41h0Pz8KSBiAwKDK6u1AzBwHB/8AhBjAS1uvv0ef/wAqe/ge0Z+D+bM//gRCgCXEH2hXsEcYISCjj/8AKmzUPiAZCok7EB4FNKTOy9nsEVXtX/nxn/m8f8g87X5qCcqQ81+Z8HVk8n5rneOHuoyaSv8AjQwPy+izlz+I9+3/APG6ARc7P/VACEGFggA8k0Pm/b/+KQ+ou/X/AOVARjDy9FbuXfN/+FIYxtIFF9MPoO6s9/8A5cWQdqx5FSEPguj0Me2nB/zk9x/L/uh5D9/8Rujl8NkP0xS0AcPB/wC/8UJnXk1OsdHj4e//AMaAcT9j/wBWZ0OADPigAhfA8f8Av/8AHNw3AfwUzj/8nuKRtLI+O1/r/wDE8kcBLPTyS+v/AMwmsqTrwkF7J+6mBg3Knu/lH/ZZfH+f+lF2Cf1/+GaEv2/+K9ZeAcB6v+Z/+JwFOnZ/6oRhAcAdfFECy06f7v8Am/8A4QTDyrxdF9rw/wCn/wCXh4GP2G/n5f8A8KAgDkYDJf1UCLclsEeoAnSN9/8A5bjTbRvUxgDwhfLxQVAKuAat9oAj/jP6yf6q5EuTw+L59E0Xaye/L/8Agnejh5fn1Uk776Pj/wDFNmDu/YvL4pJEQR6g+qaDzzHPtr/+CL9HB3Z9k4HB/t//AC1qwwOV6Cx9KcOA8F4//CNOAaGhfIc9h3TgVgBEAOgCP/zEXIAmcD/G1+FEhKaevRUIAR5OSgBiaPbl/wCK0rx02BzvMzeP+voV46fL/Vdhzly//j+axjn20xM4/FQuOx68UBBAYeD/APDObPQ57TVnuT/+WFskpkWNOivXt9//AIjWDXxc3pqnCgckIIB5LunH/wCYA1n+lJ+BqEqnT/3Nn/RkeTR+f/wqAqwGq0iX9eGlUrq5Tr/+LuO7LkHl+vbZfMv6/wCBJNZfjr/Pd/f/AFkATmebprs/yZe//wAtEgBKrAFZVR/y8/8An/436EuSoWOLNTy1Y00QwcHFSu1NOP8A8xU4GJhJ9+TSWgj/AL5wH/8AAgFjDy1NTBwHn5//ABoQKYBzYUHJyH+//wCAmiZ+T/iiJgcrxXX57p/uzxrx1+P/AMwAqgBKtZBBfk+6/wA3/wDFvA/5xXFpMUkY3gSUGKMMvfH/AOaav+9Z+VL+k/51NlD1X8tiMv8A9sgBxq4PivVPq8r/AJn/AOIP10HXtpvK8/0f/hQZDzFlbM751qeyeBgvxn/5hkASpgCqChy4f9D/APGbeU/+ZPLWEKtAlGmaOCGIAGAEAHBlP/zXDJFvzfyF7akv6/5G/F1yRx8GFdCBKtbU+fh/0vxn/wCPgkOXgqMJfKb8PX/6IMg0q5FaydI5fl/1fx9f/iBlAscwWQRTy7Ejx05UKwRhe7UnveM9hWnH/wCcFMiDwP8ANJ932hweI/5ARuHz1/NiMsu2++//AORGSv3/AAeqbGfRx/8AohQS77fR5sUhZ/6vlv8Am/8A4jeNinBARlFPZEhIp0ET3IwSQRhsUeAAAAOA/wDz1ExAEs3oueUD+H/jiL1SrUS/3U4//EeY/sbnPk8P/VMiP/0RYjvtHqrlA8X6Pf8A+PmgJJVm3lMwMCPJRB+G8RUA4MB4AAAB/wDoHt7o1B+FpcQNnljfvX2ebz7mxfrND4ropwv4/wDxLH7gfBc9V5XL8v8A+ixbGwdfbWEu64D48f8A4zwL1h+qtBfIiMbjiLygdthnmnWHK73Fr8BZjP8A9BTLGVaABCfMfamhI7Enx3fOdUc+2I/iu1XT/ZZ+rpAV4NamMvgP1Y7B74HwX9/P/wCidUJgTr9r7vNNM5f9f/j0jTwWTP4+GJeQRgyDIGje43zyx2qqkqkqqt4KYf8A6C7UO6o1AfKhOaRwBJUjnT+7EVH36Pl6rw4Onyq6qeYUL8U13z9v/wCi8+6DEEQtPj5alBV5Ky//AIzWP5oMUkYV40eERqptguqrXgYAAAAAyKTBPP8A+iL2sAIOIj0mNKaZc72DysZ8p4i4LQ099n/Gahyia6qfgYUBQzrhs2L9/wC//wBD/uoCqAEq+KwjHhd+j17vnn48/wD40igAqmADtbkZDrxWb/MMIlE8UQGIAGABwU4P/wBGOaGQakjksR9AtwS4F4Ojeeo9f9991OROk4riTzvJ/wDFn/D/APQQDeV5fRXE32N/w6p/k/8A45w0lADJOAO1cA5bBtNHATSpDxThnc6zFQPz3T/9HLXC8lKB5EUiiVBEecuvKEi4+r43kf8A4eP8/m5XCwjhU4//ADpgWYDX1WPA8f2d/Ff+BDA+Dr/8fXqiX6+X/K98AVikajfrMTx8mHhG4f8A6Uv1VlI0sliDyoCmQjAEyD77mkhi+P8A/CCHah9xNGQf/wAvjnPmobAJVwLL/EcX3/qsonXl+XLeo/r/APGbeesAiegxisAwIiCgemLXm7tCYKoFwoEf/pblPN0sDu4EHJ+BzgCi4hwPFg4fIcfiuc5/0mEIQe1LEZ4//J7jvxZeWOJSvqilX2x+rPgfDBX6PX/45AV4CZr5Zy7nHNjfHLyPt1JLTElSdZRs9yeiDwACABAf/pojpjEQsIEURISzKtMWLisyORnI0i09Qzn/AJ3YSX5Gh4qTco9NSygHDwf/AIZP+Rk9eaOz3kl+rMe1EfhZ1SOuFVUqs+f/AMk2Y65fFm/AeWygMAKkAFUishGMDGHLExJzCMUaDP5gBAAYAZFOD/8AToqKJFliERxEkRyuv1MvP5TieeDgaROn8bVAVQAlawEPORfgqsofmVX8SB+5uTD+F/VIafh16R9v/X/EsMMX4aj+TY/FCPH4/wDyufjz1/mWZCeN5XoPKxh3XReTaR2hLEDmBDqR+CFhypBMoYZaKSHFJ7//AFCgABgBIRHEfdnlGocTgA5ZwMxIt5SROyEs9BDzUVCQnXxz/wDoH9c+qa5vxWAkUhavAOV9G2CbZXc7SRPCTCLC8UEB+QnYzVYQgxyKM4IPVCCOP/1HtUzUoM/EmYAO05a1KQU10hMJsBDWGaEKCISIyJzM92Y//Lh/4DYBTiDzYXKVyxJg+YaytoeMzIc55B7secGmxC6szmQ8XmvD5pKb/wDqgABkBieGuMxWDGPIHKFT2hH9oCJehJvaHxUQ4oQA7KN3+hScChpPYj+qUifIH5vfD+P+LHOfNGeN+KbwL8F+lmMn806o8JPoKIQjEv7rPwoE3kuzohD7lZ3BxrfsBZ2QUWGD5hACADxT/wDVkVJuOCv1H914JRRPcgT7nn3NjHgH+GMq8B5I/bXpfUf6bjIwZYE+mxwcLEPyv9KjyUWH2f5LSUbAQPQZSCYp/wDwl//Z;fillColor=#B2C9AB;strokeColor=#788AA3;fontColor=#46495D;" parent="1" vertex="1">
          <mxGeometry x="937" y="189.5" width="27.98" height="25" as="geometry" />
        </mxCell>
        <mxCell id="NU9w9m9cG1zi0i4qsAGk-126" value="" style="edgeStyle=orthogonalEdgeStyle;rounded=0;orthogonalLoop=1;jettySize=auto;html=1;exitX=1;exitY=0.5;exitDx=0;exitDy=0;fontSize=31;fontColor=#46495D;endArrow=none;strokeColor=#788AA3;" parent="1" source="NU9w9m9cG1zi0i4qsAGk-11" target="NU9w9m9cG1zi0i4qsAGk-124" edge="1">
          <mxGeometry relative="1" as="geometry">
            <mxPoint x="1007" y="202" as="targetPoint" />
            <mxPoint x="897" y="202" as="sourcePoint" />
          </mxGeometry>
        </mxCell>
        <mxCell id="NU9w9m9cG1zi0i4qsAGk-194" value="" style="shape=partialRectangle;whiteSpace=wrap;html=1;bottom=0;right=0;fillColor=none;shadow=0;dashed=1;dashPattern=1 1;fontSize=25;fontColor=#46495D;strokeColor=#788AA3;align=center;" parent="1" vertex="1">
          <mxGeometry x="1" y="1" width="120" height="60" as="geometry" />
        </mxCell>
        <mxCell id="NU9w9m9cG1zi0i4qsAGk-195" value="" style="shape=partialRectangle;whiteSpace=wrap;html=1;bottom=0;right=0;fillColor=none;shadow=0;dashed=1;dashPattern=1 1;fontSize=25;fontColor=#46495D;strokeColor=#788AA3;align=center;direction=west;" parent="1" vertex="1">
          <mxGeometry x="1280" y="1640" width="120" height="60" as="geometry" />
        </mxCell>
        <mxCell id="NU9w9m9cG1zi0i4qsAGk-197" value="&lt;font style=&quot;font-size: 14px;&quot;&gt;brainBox&lt;/font&gt;" style="text;html=1;strokeColor=none;fillColor=none;align=center;verticalAlign=middle;whiteSpace=wrap;rounded=0;shadow=0;dashed=1;dashPattern=1 1;fontSize=14;fontColor=#46495D;" parent="1" vertex="1">
          <mxGeometry x="807" y="140" width="40" height="20" as="geometry" />
        </mxCell>
      </root>
    </mxGraphModel>
  </diagram>
</mxfile>
